# xmcd
#
# Track frame offsets:
#	150
#	14306
#	26474
#	43865
#	56492
#	68256
#	83566
#	96171
#	113025
#	127144
#	141483
#	157153
#	171425
#	183613
#
# Disc length: 2679 seconds
#
# Revision: 0
# Processed by: cddbd v1.5.2PL0 Copyright (c) Steve Scherf et al.
# Submitted via: audiograbber 1.83.01
#
DISCID=c00a750e
DTITLE=01 - Mr Music Country 2009-09
DYEAR=2009
DGENRE=Country
TTITLE0=Joe Bonson and Coffee Run - Whiskey stops talkin'
TTITLE1=L.M. Stone - I'm just a country boy
TTITLE2=Zona Jones - Harleys and horses
TTITLE3=Hege Bringsverd with Robert Allen - If God met you
TTITLE4=Leland Martin - When Haggard sings "The fighting side of me (extended v
TTITLE4=ersion)
TTITLE5=Shane Worley - Them old Hank Williams songs
TTITLE6=Richie Allbright - More live and less learn
TTITLE7=Shelby Roberts - Nothin' like a dream come true
TTITLE8=Don Redmond Band med Andreas Johansson - The best friend
TTITLE9=Rustie Blue - The devil may care
TTITLE10=Kenny Chesney - No shoes, no shirt, no problems
TTITLE11=Don You - Oh blue eyes
TTITLE12=Richard Hailey - I'm gonna go down swinging
TTITLE13=Whiskey and Dynamite med Linda Dahl - Until you can prove (You don't lov
TTITLE13=e me)
EXTD=
EXTT0=
EXTT1=
EXTT2=
EXTT3=
EXTT4=
EXTT5=
EXTT6=
EXTT7=
EXTT8=
EXTT9=
EXTT10=
EXTT11=
EXTT12=
EXTT13=
PLAYORDER=
